<?xml version="1.0" standalone="no"?><!DOCTYPE svg PUBLIC "-//W3C//DTD SVG 1.1//EN" "http://www.w3.org/Graphics/SVG/1.1/DTD/svg11.dtd"><svg t="1622957799491" class="icon" viewBox="0 0 1045 1024" version="1.1" xmlns="http://www.w3.org/2000/svg" p-id="1900" xmlns:xlink="http://www.w3.org/1999/xlink" width="204.1015625" height="200"><defs><style type="text/css"></style></defs><path d="M762.553191 0c48.149787 0 87.148936 39.217021 87.148937 87.366809V152.510638h108.718298A87.345021 87.345021 0 0 1 1045.787234 239.659574v697.19149c0 48.149787-39.086298 87.148936-87.366808 87.148936H87.366809A87.345021 87.345021 0 0 1 0 936.851064V239.659574c0-48.149787 39.086298-87.148936 87.366809-87.148936H196.085106V87.366809A87.192511 87.192511 0 0 1 283.234043 0h479.319148z m174.101788 239.659574H109.154043A21.787234 21.787234 0 0 0 87.148936 261.294298v653.922042c0 11.765106 9.84783 21.634723 21.983319 21.634724H936.633191A21.787234 21.787234 0 0 0 958.638298 915.21634V261.294298c0-11.765106-9.84783-21.634723-21.983319-21.634724zM501.106383 326.808511c132.357447 0 239.659574 107.302128 239.659574 239.659574a238.570213 238.570213 0 0 1-42.964425 136.954553l74.12017 74.076596c16.492936 16.514723 16.62366 43.138723 0 59.78417a42.158298 42.158298 0 0 1-59.78417 0l-74.076596-74.12017A238.570213 238.570213 0 0 1 501.106383 806.12766c-132.357447 0-239.659574-107.302128-239.659574-239.659575s107.302128-239.659574 239.659574-239.659574z m0 87.148936a152.510638 152.510638 0 1 0 0 305.021276 152.510638 152.510638 0 0 0 0-305.021276zM740.722383 87.148936H305.064851A21.700085 21.700085 0 0 0 283.234043 109.001532V152.510638h479.319148V109.001532A21.721872 21.721872 0 0 0 740.722383 87.148936z" fill="#d4237a" p-id="1901"></path></svg>